<svg data-v-423bf9ae="" xmlns="http://www.w3.org/2000/svg" viewBox="0 0 293.2521151995664 180" class="iconAbove"><!----><!----><!----><g data-v-423bf9ae="" id="95f4b00a-86d5-4bc1-a392-8de2a4a74d33" fill="#22C4D6" transform="matrix(5.623242696436797,0,0,5.623242696436797,-1.9681344567412964,120.03527998948998)"><path d="M0.35 0.01L0.35 1.29L1.64 1.29L1.64 1.39L1.11 1.71L1.11 10.50L5.88 10.50L5.88 8.16L4.61 8.16L4.61 9.28L2.38 9.28L2.38 0.01ZM12.46 1.46L10.88-0.13L8.88-0.13L7.29 1.46L7.29 8.86L8.86 10.54L10.88 10.54L12.46 8.86ZM10.33 9.28L9.41 9.28L8.55 8.37L8.55 1.97L9.39 1.13L10.35 1.13L11.19 1.97L11.19 8.37ZM13.73 10.50L15.02 10.50L15.43 7.77L17.61 7.77L18.02 10.50L19.31 10.50L17.75 0.01L15.29 0.01ZM17.43 6.50L15.61 6.50L16.38 1.29L16.65 1.29ZM21.97 9.23L21.97 1.32L23.51 1.32L24.33 2.13L24.33 8.40L23.51 9.23ZM20.69 10.50C21.80 10.50 22.92 10.50 24.04 10.50L25.61 8.92L25.61 1.61L24.04 0.04L20.69 0.04ZM29.47 0.01L29.47 1.29L30.76 1.29L30.76 1.39L30.23 1.71L30.23 10.50L35.00 10.50L35.00 8.16L33.73 8.16L33.73 9.28L31.50 9.28L31.50 0.01ZM37.73 10.50L37.73 0C36.64 0 37.55 0 36.46 0L36.46 10.50ZM39.75 10.50L41.02 10.50L41.02 5.46L40.87 2.25L40.91 2.25L41.82 5.35L43.46 10.50L44.81 10.50L44.81 0.04L43.54 0.04L43.54 3.72L43.78 7.71L43.74 7.71L42.66 3.79L41.47 0.04L39.75 0.04ZM48.10 0.04L46.83 0.04L46.83 10.50L48.10 10.50L48.10 5.53L48.78 5.53L51.10 10.50L52.50 10.50L49.88 4.90L52.18 0.04L50.78 0.04L48.78 4.26L48.10 4.26Z"></path></g><!----><g data-v-423bf9ae="" id="1f8819cb-9d1a-438f-ab24-615ed1c25af0" transform="matrix(1.0868111504448785,0,0,1.0868111504448785,91.74473429518693,-0.23894260335429607)" stroke="none" fill="#22C4D6"><g clip-rule="evenodd"><path d="M12.983 10.59l17.018 88.223-5.872-59.049 29.021-1.892-.054-9.883L64.549 1 53.622 18.977z"></path><path d="M59.389 54.548l5.16-53.541-8.74 39.716-19.612 1.045 1.57 20.462-7.766 36.583 12.057-39.899z"></path><path d="M62.8 67.182l.549-10.453-15.979 3.755-.032 11.797-17.337 26.532 21.68-27.616zM65.711 62.394l14.841-4.731 1.509-12.532-15.899 2.095zM72.07 44.502l10.988-1.417 1.581-10.278-8.079-.373L64.549 1l8.43 30.967z"></path><path d="M87.413 31.294l1.256-9.506-9.544-2.694L64.549 1l14.483 22.437-.422 7z"></path></g></g><!----></svg>